<?xml version="1.0" encoding="UTF-8"?>
<!DOCTYPE svg PUBLIC "-//W3C//DTD SVG 1.1//EN" "http://www.w3.org/Graphics/SVG/1.1/DTD/svg11.dtd">
<!-- Creator: CorelDRAW -->
<svg xmlns="http://www.w3.org/2000/svg" xml:space="preserve" width="75mm" height="25mm" version="1.1" style="shape-rendering:geometricPrecision; text-rendering:geometricPrecision; image-rendering:optimizeQuality; fill-rule:evenodd; clip-rule:evenodd"
viewBox="0 0 9500 4500"
 xmlns:xlink="http://www.w3.org/1999/xlink"
 xmlns:xodm="http://www.corel.com/coreldraw/odm/2003">
 <defs>
  <style type="text/css">
   <![CDATA[
    .fil1 {fill:#59178A;fill-rule:nonzero}
    .fil0 {fill:#AB9ED9;fill-rule:nonzero}
    .fil2 {fill:#D42E12;fill-rule:nonzero}
   ]]>
  </style>
 </defs>
 <g id="Layer_x0020_1">
  <metadata id="CorelCorpID_0Corel-Layer"/>
  <g id="_2300966037904">
   <path class="fil0" d="M3584.49 2025.72c0,-436.93 147.43,-835.13 389.37,-1135.39 -362.02,282.96 -595.95,730.44 -595.95,1234.29 0,795.2 582.42,1450.09 1332.27,1538.75 -647.59,-189.36 -1125.69,-850.73 -1125.69,-1637.65z"/>
   <path class="fil1" d="M244.48 4298.11l52.04 0 158.41 -228.9 0 228.9 54.33 0 0 -314.15 -51.65 0 -158.92 229.28 0 -229.28 -54.21 0 0 314.15zm334.86 0l55.1 0 0 -132.46 150.01 0 0 132.46 55.23 0 0 -314.15 -55.23 0 0 130.54 -150.01 0 0 -130.54 -55.1 0 0 314.15zm475.73 5.34c58.78,0 94.66,-21.5 127.49,-55.61l-35.5 -35.87c-26.84,25.06 -51.53,40.85 -90.22,40.85 -60.17,0 -103.69,-50.27 -103.69,-111.86 0,-62.34 43.52,-111.71 103.69,-111.71 35.89,0 62.86,15.65 88.05,39.06l35.37 -40.85c-30.02,-28.75 -65.02,-48.98 -122.9,-48.98 -95.18,0 -162.11,73.17 -162.11,162.48 0,91.11 68.21,162.49 159.82,162.49zm251.4 -5.34l55.73 0 0 -263.01 99.63 0 0 -51.14 -254.99 0 0 51.14 99.63 0 0 263.01zm202.53 0l55.1 0 0 -101.03 62.48 0c69.09,0 125.71,-36.77 125.71,-107.26 0,-64.13 -46.31,-105.86 -119.48,-105.86l-123.81 0 0 314.15zm55.1 -150.78l0 -113.12 64.26 0c41.22,0 67.81,19.22 67.81,56.11 0,33.6 -26.07,57.01 -67.81,57.01l-64.26 0zm274.34 155.74c40.84,0 73.15,-20.23 99.75,-73.67l122.53 -245.44 -59.8 0 -86.14 182.58 -97.85 -182.58 -61.97 0 131.06 237.8c-15.65,25.58 -35.37,34.1 -49.37,34.1 -13.87,0 -25.96,-2.67 -38.56,-9.79l-21.11 41.22c18.44,9.93 37.28,15.78 61.46,15.78zm263.09 -4.96l54.21 0 0 -224.45 98.35 147.22 1.79 0 99.24 -148.11 0 225.34 55.23 0 0 -314.15 -58.91 0 -95.56 148.48 -95.56 -148.48 -58.79 0 0 314.15zm378.39 0l235.14 0 0 -49.37 -180.04 0 0 -84.36 157.64 0 0 -49.37 -157.64 0 0 -81.69 177.75 0 0 -49.36 -232.85 0 0 314.15zm289.57 0l55.1 0 0 -132.46 150.01 0 0 132.46 55.23 0 0 -314.15 -55.23 0 0 130.54 -150.01 0 0 -130.54 -55.1 0 0 314.15zm407.02 0l55.73 0 0 -263.01 99.63 0 0 -51.14 -254.99 0 0 51.14 99.63 0 0 263.01zm289.92 67.31l48.47 0 5.48 -67.31 221.27 0 0 67.31 45.8 0 7.64 -116.68 -39.06 0 0 -264.78 -219.11 0 0 44.4c0,104.97 -13.87,168.72 -39.95,220.38l-30.54 0 0 116.68zm89.32 -116.68c21.63,-43.52 34.11,-106.38 34.11,-179.16l0 -35.87 110.94 0 0 215.03 -145.05 0zm277.48 52.93c61.84,0 98.23,-39.95 98.23,-239.72l0 -28.24 108.66 0 0 264.4 55.22 0 0 -314.15 -215.54 0 0 61.83c0,188.19 -29.52,208.3 -61.46,208.3 -6.74,0 -13.86,-1.27 -17.94,-2.68l-5.34 45.3c8.53,2.29 25.96,4.96 38.17,4.96zm307.89 -3.56l65.15 0 78 -108.67 69.59 0 0 108.67 54.84 0 0 -314.15 -139.7 0c-72.66,0 -117.06,38.93 -117.06,100 0,52.04 30.92,83.98 74.94,96.07l-85.76 118.08zm131.57 -156.63c-39.58,0 -65.15,-21.12 -65.15,-53.96 0,-34.09 24.69,-53.81 66.03,-53.81l80.29 0 0 107.77 -81.17 0zm328.98 156.63l55.1 0 0 -264.4 145.94 0 0 264.4 55.23 0 0 -314.15 -256.27 0 0 314.15zm325.83 0l55.1 0 0 -101.03 62.48 0c69.09,0 125.71,-36.77 125.71,-107.26 0,-64.13 -46.31,-105.86 -119.48,-105.86l-123.81 0 0 314.15zm55.1 -150.78l0 -113.12 64.26 0c41.22,0 67.81,19.22 67.81,56.11 0,33.6 -26.08,57.01 -67.81,57.01l-64.26 0zm383.48 156.12c96.45,0 164.64,-74.05 164.64,-162.49 0,-89.31 -67.3,-162.48 -163.75,-162.48 -96.57,0 -164.78,74.06 -164.78,162.48 0,89.33 67.31,162.49 163.89,162.49zm0.89 -50.63c-62.47,0 -106.88,-50.78 -106.88,-111.86 0,-61.96 43.52,-111.71 105.99,-111.71 62.35,0 106.76,50.64 106.76,111.71 0,61.98 -43.52,111.86 -105.87,111.86zm357.39 57.38l54.71 0 0 -34.11c99.24,0 157.14,-57.38 157.14,-137.29 0,-80.41 -58.78,-136.53 -157.14,-136.53l0 -29.64 -54.71 0 0 29.64c-98.36,0 -157.15,56.12 -157.15,136.02 0,80.42 58.28,137.8 157.15,137.8l0 34.11zm0 -82.96c-61.97,0 -100.65,-32.32 -100.65,-88.05 0,-54.71 38.68,-87.54 100.65,-87.54l0 175.59zm54.71 0l0 -175.59c62.34,0 100.52,32.83 100.52,87.54 0,55.73 -38.18,88.05 -100.52,88.05zm207.88 70.87l235.15 0 0 -49.37 -180.05 0 0 -84.36 157.65 0 0 -49.37 -157.65 0 0 -81.69 177.75 0 0 -49.36 -232.85 0 0 314.15zm435.39 5.34c58.79,0 94.66,-21.5 127.5,-55.61l-35.5 -35.87c-26.85,25.06 -51.53,40.85 -90.22,40.85 -60.18,0 -103.69,-50.27 -103.69,-111.86 0,-62.34 43.51,-111.71 103.69,-111.71 35.88,0 62.86,15.65 88.05,39.06l35.37 -40.85c-30.02,-28.75 -65.02,-48.98 -122.91,-48.98 -95.17,0 -162.1,73.17 -162.1,162.48 0,91.11 68.2,162.49 159.81,162.49zm320.11 0c58.79,0 94.66,-21.5 127.5,-55.61l-35.5 -35.87c-26.85,25.06 -51.54,40.85 -90.22,40.85 -60.18,0 -103.69,-50.27 -103.69,-111.86 0,-62.34 43.51,-111.71 103.69,-111.71 35.88,0 62.86,15.65 88.05,39.06l35.37 -40.85c-30.02,-28.75 -65.02,-48.98 -122.91,-48.98 -95.17,0 -162.1,73.17 -162.1,162.48 0,91.11 68.2,162.49 159.81,162.49zm174.29 -5.34l52.04 0 158.42 -228.9 0 228.9 54.33 0 0 -314.15 -51.66 0 -158.92 229.28 0 -229.28 -54.21 0 0 314.15zm484.76 5.34c96.45,0 164.64,-74.05 164.64,-162.49 0,-89.31 -67.3,-162.48 -163.75,-162.48 -96.57,0 -164.78,74.06 -164.78,162.48 0,89.33 67.31,162.49 163.89,162.49zm0.89 -50.63c-62.47,0 -106.88,-50.78 -106.88,-111.86 0,-61.96 43.52,-111.71 105.99,-111.71 62.35,0 106.76,50.64 106.76,111.71 0,61.98 -43.52,111.86 -105.87,111.86zm219.58 45.29l55.1 0 0 -132.46 150.01 0 0 132.46 55.23 0 0 -314.15 -55.23 0 0 130.54 -150.01 0 0 -130.54 -55.1 0 0 314.15zm302.93 0l56.5 0 32.32 -75.83 148.61 0 31.94 75.83 58.28 0 -138.18 -316.45 -51.28 0 -138.19 316.45zm109.05 -124.82l53.83 -125.71 54.32 125.71 -108.15 0zm261.32 128.38c61.85,0 98.23,-39.95 98.23,-239.72l0 -28.24 108.67 0 0 264.4 55.22 0 0 -314.15 -215.54 0 0 61.83c0,188.19 -29.52,208.3 -61.46,208.3 -6.75,0 -13.87,-1.27 -17.94,-2.68l-5.35 45.3c8.53,2.29 25.96,4.96 38.17,4.96zm482.09 1.78c96.45,0 164.64,-74.05 164.64,-162.49 0,-89.31 -67.31,-162.48 -163.75,-162.48 -96.57,0 -164.78,74.06 -164.78,162.48 0,89.33 67.31,162.49 163.89,162.49zm0.89 -50.63c-62.48,0 -106.88,-50.78 -106.88,-111.86 0,-61.96 43.52,-111.71 105.99,-111.71 62.35,0 106.75,50.64 106.75,111.71 0,61.98 -43.51,111.86 -105.86,111.86zm219.58 45.29l145.44 0c69.98,0 116.17,-30.03 116.17,-86.14 0,-43.65 -25.58,-64.64 -62.35,-77.24 23.29,-12.08 44.92,-32.31 44.92,-69.98 0,-22.02 -7.26,-39.06 -21.13,-53.06 -17.94,-17.94 -46.32,-27.73 -82.19,-27.73l-140.86 0 0 314.15zm54.21 -181.82l0 -83.48 79.52 0c35.37,0 55.23,15.27 55.23,39.96 0,29.65 -23.8,43.52 -59.3,43.52l-75.45 0zm0 132.83l0 -86.14 87.54 0c43.52,0 64.63,15.78 64.63,42.24 0,29.14 -22.9,43.9 -60.56,43.9l-91.61 0z"/>
   <path class="fil2" d="M3246.06 2165.21c0,-973.55 789.25,-1762.79 1762.82,-1762.79 418.55,0 802.95,145.97 1105.29,389.64 -323.11,-400.92 -818.13,-657.48 -1373.16,-657.48 -973.56,0 -1762.81,789.22 -1762.81,1762.78 0,555.03 256.59,1050.04 657.51,1373.15 -243.68,-302.34 -389.65,-686.73 -389.65,-1105.3z"/>
   <polygon class="fil1" points="1191.31,901.62 230.2,901.62 230.2,408.04 2689.29,408.04 2689.29,901.62 1728.18,901.62 1728.18,3438.61 1191.31,3438.61 "/>
   <polygon class="fil1" points="6715.52,408.05 7239.38,408.05 7239.38,2620.35 8771.97,408.05 9269.8,408.05 9269.8,3438.62 8745.98,3438.62 8745.98,1230.66 7217.73,3438.62 6715.52,3438.62 "/>
   <path class="fil1" d="M5329.32 3457.49c-883.15,0 -1599.09,-672.74 -1599.09,-1502.62 0,-1.54 -2.68,57.1 -2.68,88.3 0,885.98 656.26,1604.18 1465.82,1604.18 381.93,0 729.62,-159.96 990.48,-421.8 -2.12,1.07 -4.38,1.98 -6.5,3.05 -245.87,144.87 -536.42,228.89 -848.03,228.89z"/>
  </g>
 </g>
</svg>
